<?xml version="1.0" encoding="iso-8859-1"?>
<!-- Generator: Adobe Illustrator 19.0.0, SVG Export Plug-In . SVG Version: 6.00 Build 0)  -->
<svg version="1.1" id="Capa_1" xmlns="http://www.w3.org/2000/svg" xmlns:xlink="http://www.w3.org/1999/xlink" x="0px" y="0px"
	 viewBox="0 0 510.933 510.933" style="enable-background:new 0 0 510.933 510.933;" xml:space="preserve">
<path style="fill:#435B6C;" d="M446.4,284.8c-4.267,0-9.6-1.067-18.133-1.067c-7.467-1.067-16-2.133-26.667-3.2
	c-10.667-1.067-21.333-4.267-32-7.467c-22.4-6.4-46.933-17.067-64-32C288.533,227.2,280,208,284.267,189.867
	c1.067-4.267,3.2-8.533,5.333-13.867c0,0,3.2-4.267,4.267-6.4c0-1.067,1.067-2.133,1.067-2.133c1.067-1.067,4.267-3.2,5.333-4.267
	c4.267-3.2,8.533-6.4,12.8-9.6s8.533-6.4,12.8-10.667c7.467-6.4,14.933-13.867,22.4-20.267C361.067,108.8,370.667,96,376,83.2
	s5.333-24.533,2.133-35.2c-3.2-9.6-10.667-18.133-19.2-24.533c-7.467-6.4-16-10.667-23.467-14.933c-7.467-3.2-12.8-6.4-17.067-7.467
	c-3.2,0-5.333-1.067-5.333-1.067L280,10.667c0,0,1.067,1.067,3.2,3.2c2.133,2.133,4.267,5.333,7.467,8.533
	c5.333,7.467,10.667,19.2,2.133,32c-7.467,12.8-27.733,27.733-58.667,43.733c-7.467,4.267-17.067,7.467-25.6,11.733
	c-4.267,2.133-9.6,4.267-13.867,5.333c-5.333,2.133-10.667,4.267-16,6.4c-3.2,1.067-5.333,2.133-8.533,3.2l-11.733,6.4
	c-4.267,2.133-7.467,4.267-11.733,5.333L136,141.867c-13.867,7.467-26.667,16-37.333,24.533
	C51.733,202.667,27.2,245.333,22.933,285.867c-5.333,44.8,13.867,87.467,44.8,120.533c16,18.133,34.133,33.067,53.333,45.867
	c19.2,13.867,38.4,24.533,54.4,33.067c17.067,8.533,30.933,14.933,41.6,19.2c10.667,4.267,16,6.4,16,6.4l219.733-227.2
	C451.733,284.8,449.6,284.8,446.4,284.8z"/>
<g>
	<path style="fill:#FFFFFF;" d="M342.933,45.867c-1.067-5.333-5.333-12.8-11.733-19.2s-13.867-11.733-21.333-16
		c-6.4-4.267-11.733-6.4-11.733-6.4l-6.4,2.133c0,0,4.267,2.133,9.6,6.4c7.467,4.267,13.867,9.6,18.133,16
		c5.333,6.4,7.467,12.8,7.467,18.133c0,2.133,0,5.333,0,6.4s0,2.133,0,2.133L344,54.4c0,0,0-1.067,0-3.2
		C344,51.2,342.933,49.067,342.933,45.867z"/>
	<path style="fill:#FFFFFF;" d="M252.267,145.067c2.133-1.067,5.333-3.2,8.533-5.333c3.2-2.133,5.333-3.2,8.533-5.333
		c5.333-3.2,11.733-7.467,17.067-11.733c11.733-7.467,21.333-16,27.733-22.4c3.2-3.2,6.4-5.333,7.467-7.467
		c2.133-2.133,2.133-3.2,2.133-3.2l-20.267-3.2c0,0-1.067,1.067-3.2,2.133c-2.133,1.067-4.267,4.267-8.533,6.4
		c-7.467,5.333-17.067,12.8-28.8,20.267c-5.333,3.2-11.733,7.467-18.133,10.667c-3.2,2.133-6.4,3.2-8.533,4.267
		c-3.2,1.067-5.333,3.2-7.467,4.267c-11.733,5.333-18.133,9.6-18.133,9.6l26.667,7.467C238.4,153.6,243.733,150.4,252.267,145.067z"
		/>
	<path style="fill:#FFFFFF;" d="M189.333,250.667c-2.133-6.4-3.2-16-2.133-25.6c1.067-9.6,4.267-18.133,7.467-24.533
		c2.133-3.2,3.2-5.333,4.267-7.467c1.067-2.133,2.133-3.2,2.133-3.2l-38.4-3.2c0,0-1.067,1.067-2.133,3.2
		c-1.067,2.133-4.267,5.333-6.4,9.6c-5.333,7.467-10.667,18.133-13.867,28.8c-3.2,10.667-4.267,21.333-3.2,29.867
		c0,8.533,2.133,13.867,2.133,13.867l54.4-9.6C192.533,262.4,191.467,257.067,189.333,250.667z"/>
	<path style="fill:#FFFFFF;" d="M265.067,331.733c-12.8-7.467-24.533-14.933-33.067-21.333c-4.267-3.2-6.4-5.333-8.533-7.467
		c-2.133-2.133-3.2-3.2-3.2-3.2l-58.667,19.2c0,0,1.067,1.067,3.2,3.2s5.333,6.4,8.533,9.6c7.467,7.467,20.267,18.133,34.133,27.733
		c14.933,9.6,30.933,18.133,44.8,24.533s23.467,10.667,23.467,10.667l49.067-37.333c0,0-8.533-2.133-20.267-7.467
		C293.867,345.6,278.933,339.2,265.067,331.733z"/>
</g>
<rect x="403.733" y="186.667" style="fill:#FFD15D;" width="22.4" height="92.8"/>
<g>
	<polygon style="fill:#4ABAA5;" points="415.467,96 349.333,180.267 480.533,180.267 	"/>
	<polygon style="fill:#4ABAA5;" points="415.467,137.6 337.6,236.8 493.333,236.8 	"/>
	<polygon style="fill:#4ABAA5;" points="415.467,56.533 358.933,128 472,128 	"/>
</g>
<rect x="107.2" y="96" style="fill:#FFD15D;" width="16" height="68.267"/>
<g>
	<polygon style="fill:#4ABAA5;" points="114.667,28.8 66.667,90.667 163.733,90.667 	"/>
	<polygon style="fill:#4ABAA5;" points="114.667,59.733 58.133,132.267 172.267,132.267 	"/>
	<polygon style="fill:#4ABAA5;" points="114.667,0 73.067,53.333 156.267,53.333 	"/>
</g>
<rect x="85.867" y="330.667" style="fill:#FFD15D;" width="22.4" height="94.933"/>
<g>
	<polygon style="fill:#4ABAA5;" points="97.6,237.867 30.4,324.267 164.8,324.267 	"/>
	<polygon style="fill:#4ABAA5;" points="97.6,281.6 17.6,381.867 176.533,381.867 	"/>
	<polygon style="fill:#4ABAA5;" points="97.6,197.333 40,270.933 155.2,270.933 	"/>
</g>
<g>
</g>
<g>
</g>
<g>
</g>
<g>
</g>
<g>
</g>
<g>
</g>
<g>
</g>
<g>
</g>
<g>
</g>
<g>
</g>
<g>
</g>
<g>
</g>
<g>
</g>
<g>
</g>
<g>
</g>
</svg>
